<svg xmlns="http://www.w3.org/2000/svg" xmlns:xlink="http://www.w3.org/1999/xlink" version="1.0" x="0" y="0" width="2400" height="953.3232718218102" viewBox="18.046848754882813 65.29812286376954 297.9063024902344 118.33375457763673" preserveAspectRatio="xMidYMid meet" color-interpolation-filters="sRGB"><g><defs><linearGradient id="92" x1="0%" y1="0%" x2="100%" y2="0%"><stop offset="0%" stop-color="#fa71cd"></stop> <stop offset="100%" stop-color="#9b59b6"></stop></linearGradient><linearGradient id="93" x1="0%" y1="0%" x2="100%" y2="0%"><stop offset="0%" stop-color="#f9d423"></stop> <stop offset="100%" stop-color="#f83600"></stop></linearGradient><linearGradient id="94" x1="0%" y1="0%" x2="100%" y2="0%"><stop offset="0%" stop-color="#0064d2"></stop> <stop offset="100%" stop-color="#1cb0f6"></stop></linearGradient><linearGradient id="95" x1="0%" y1="0%" x2="100%" y2="0%"><stop offset="0%" stop-color="#f00978"></stop> <stop offset="100%" stop-color="#3f51b1"></stop></linearGradient><linearGradient id="96" x1="0%" y1="0%" x2="100%" y2="0%"><stop offset="0%" stop-color="#7873f5"></stop> <stop offset="100%" stop-color="#ec77ab"></stop></linearGradient><linearGradient id="97" x1="0%" y1="0%" x2="100%" y2="0%"><stop offset="0%" stop-color="#f9d423"></stop> <stop offset="100%" stop-color="#e14fad"></stop></linearGradient><linearGradient id="98" x1="0%" y1="0%" x2="100%" y2="0%"><stop offset="0%" stop-color="#009efd"></stop> <stop offset="100%" stop-color="#2af598"></stop></linearGradient><linearGradient id="99" x1="0%" y1="0%" x2="100%" y2="0%"><stop offset="0%" stop-color="#ffcc00"></stop> <stop offset="100%" stop-color="#00b140"></stop></linearGradient><linearGradient id="100" x1="0%" y1="0%" x2="100%" y2="0%"><stop offset="0%" stop-color="#d51007"></stop> <stop offset="100%" stop-color="#ff8177"></stop></linearGradient><linearGradient id="102" x1="0%" y1="0%" x2="100%" y2="0%"><stop offset="0%" stop-color="#a2b6df"></stop> <stop offset="100%" stop-color="#0c3483"></stop></linearGradient><linearGradient id="103" x1="0%" y1="0%" x2="100%" y2="0%"><stop offset="0%" stop-color="#7ac5d8"></stop> <stop offset="100%" stop-color="#eea2a2"></stop></linearGradient><linearGradient id="104" x1="0%" y1="0%" x2="100%" y2="0%"><stop offset="0%" stop-color="#00ecbc"></stop> <stop offset="100%" stop-color="#007adf"></stop></linearGradient><linearGradient id="105" x1="0%" y1="0%" x2="100%" y2="0%"><stop offset="0%" stop-color="#b88746"></stop> <stop offset="100%" stop-color="#fdf5a6"></stop></linearGradient></defs><g fill="#2ebef3" class="icon-text-wrapper icon-svg-group iconsvg" transform="translate(26.967498779296875,74.21876907348633)"><g class="iconsvg-imagesvg" transform="translate(0,0)" mask="url(#5e9745ca-0427-469c-8206-4fad5ca09605)"><g><rect fill="#2ebef3" fill-opacity="0" stroke-width="2" x="0" y="0" width="80.4" height="100.4924630652701" class="image-rect"></rect> <svg x="0" y="0" width="80.4" height="100.4924630652701" filtersec="colorsb2697402406" class="image-svg-svg primary" style="overflow: visible;"><svg xmlns="http://www.w3.org/2000/svg" viewBox="-0.005629400257021189 0 80.00563049316406 100"><g fill-rule="evenodd"><path d="M80 3.77C59.39 19.79 5.22 27 0 46.84v31.38c0 8.5 2.88 15.55 10.74 21.78C.7 68.08 77.26 73.05 80 45.87z" fill="#114fee"></path><path d="M51.69 17.48L51.59 0C29.1 15.36 2 18.09 0 46.84v31.38a27 27 0 0 0 2.39 11.67c-.34-34.1 49.56-20.5 49.4-52.8z" fill="#2ddaff" opacity=".8"></path></g></svg></svg> </g><rect v-gra="id" width="92.4000015258789" height="112.49246215820312" transform="translate(-6, -6)" style="pointer-events:none;" fill="url(#GrPEkya8kAW9NmYaCtrdo)"></rect></g> <g transform="translate(126.33500289916992,42.492462158203125)"><g fill-rule="" class="tp-name iconsvg-namesvg" fill="url(#f5954334-9e60-4ac3-8736-237dcd16f005)"><g transform="scale(1)"><g><path d="M38.75 0.07L10.42 0.07Q7.72 0.07 6.77-1.31 5.83-2.69 5.83-4.37L5.83-4.37 5.83-54.7Q5.83-58.2 10.05-58.2L10.05-58.2Q14.42-58.2 14.42-54.7L14.42-54.7 14.42-7.28 38.75-7.28Q41.37-7.28 41.37-3.71L41.37-3.71Q41.52 0.07 38.75 0.07L38.75 0.07ZM55.43-32.27L55.43-11.65Q55.43-9.91 56.56-8.38 57.69-6.85 60.38-6.85L60.38-6.85 69.49-6.85Q72.18-6.85 73.31-8.19 74.44-9.54 74.44-11.29L74.44-11.29 74.44-12.09Q74.44-15.51 78.44-15.51L78.44-15.51Q82.45-15.51 82.45-12.09L82.45-12.09 82.45-11.22Q82.45-8.16 81.47-6.19 80.48-4.22 78.52-2.77L78.52-2.77Q74.66 0 70.8 0L70.8 0 58.56 0Q54.7 0 51.06-2.77L51.06-2.77Q49.31-4.22 48.36-6.45 47.42-8.67 47.42-11.58L47.42-11.58 47.42-32.34Q47.42-38.24 51.06-41.08L51.06-41.08Q52.88-42.39 54.81-43.16 56.74-43.92 58.56-43.92L58.56-43.92 70.8-43.92Q72.54-43.92 74.66-43.23 76.77-42.54 78.59-41.37L78.59-41.37Q80.34-40.13 81.39-37.95 82.45-35.76 82.45-32.78L82.45-32.78 82.45-22.94Q82.45-21.27 81.47-19.96 80.48-18.65 77.86-18.65L77.86-18.65 62.13-18.65Q59.51-18.65 59.36-22.07L59.36-22.07Q59.36-25.49 62.13-25.49L62.13-25.49 74.51-25.49 74.44-32.27Q74.44-34.09 73.31-35.58 72.18-37.07 69.49-37.07L69.49-37.07 60.38-37.07Q57.69-37.07 56.56-35.58 55.43-34.09 55.43-32.27L55.43-32.27ZM122.95-38.6L99.71-12.16 99.71-2.91Q99.71 0.51 95.71 0.51L95.71 0.51Q91.7 0.51 91.7-2.91L91.7-2.91 91.7-54.77Q91.7-58.27 95.71-58.27L95.71-58.27Q99.71-58.27 99.71-54.77L99.71-54.77 99.71-23.89Q101.53-26.08 103.76-28.59 105.98-31.1 108.2-33.69 110.42-36.27 112.6-38.79 114.79-41.3 116.68-43.48L116.68-43.48 116.68-43.41Q117.99-44.94 119.31-44.94L119.31-44.94Q120.03-44.94 120.73-44.61 121.42-44.28 122.22-43.7L122.22-43.7 122.15-43.7Q123.89-42.25 123.89-40.79L123.89-40.79Q123.89-40.28 123.68-39.66 123.46-39.04 122.95-38.6L122.95-38.6ZM116.03-20.03L124.04-4.88Q124.55-3.93 124.55-2.91L124.55-2.91Q124.55-1.02 122.37-0.07L122.37-0.07Q120.91 0.8 119.74 0.8L119.74 0.8Q118.94 0.8 118.21 0.25 117.49-0.29 117.05-1.09L117.05-1.09 109.76-15.15Q109.11-16.24 109.11-17.34L109.11-17.34Q109.11-19.16 111-20.39L111-20.39Q111.51-20.76 112.06-21.05 112.6-21.34 113.26-21.49L113.26-21.49Q114.06-21.63 114.79-21.2 115.52-20.76 116.03-20.03L116.03-20.03ZM138.53-37L138.53-3.06Q138.53 0.44 134.53 0.44L134.53 0.44Q130.52 0.44 130.52-3.06L130.52-3.06 130.52-54.77Q130.52-58.27 134.53-58.27L134.53-58.27Q138.53-58.27 138.53-54.77L138.53-54.77 138.53-43.85 153.9-43.85Q157.62-43.85 161.62-41.08L161.62-41.08Q165.56-38.31 165.56-32.34L165.56-32.34 165.56-3.06Q165.56 0.44 161.55 0.44L161.55 0.44Q157.54 0.44 157.54-3.06L157.54-3.06 157.54-31.68Q157.54-33.58 156.38-35.33L156.38-35.33 156.45-35.25Q155.51-37 152.59-37L152.59-37 138.53-37Z" transform="translate(-5.829999923706055, 58.27000045776367)"></path></g> </g></g> </g></g><defs v-gra="od"><linearGradient x1="0" y1="1" x2="0" y2="0" id="f5954334-9e60-4ac3-8736-237dcd16f005"><stop offset="0%" stop-color="#5683f2"></stop><stop offset="100%" stop-color="#f6d6f9"></stop></linearGradient><filter id="42443b3f1de60f6b6fd3b6a9844b4764" filterUnits="objectBoundingBox"><feColorMatrix type="matrix" values="0 0 0 0 0.99609375  0 0 0 0 0.99609375  0 0 0 0 0.99609375  0 0 0 1 0"></feColorMatrix></filter></defs><defs v-gra="id"><filter id="af41ce6e-935e-4e9b-9432-036c97ca0c6c" filterUnits="userSpaceOnUse"><feColorMatrix type="matrix" values="0 0 0 0 0.99609375  0 0 0 0 0.99609375  0 0 0 0 0.99609375  0 0 0 1 0"></feColorMatrix></filter><linearGradient x1="0" y1="1" x2="0" y2="0" id="GrPEkya8kAW9NmYaCtrdo"><stop offset="0%" stop-color="#5683f2"></stop><stop offset="100%" stop-color="#e9c9ec"></stop></linearGradient><filter id="42443b3f1de60f6b6fd3b6a9844b4764" filterUnits="objectBoundingBox"><feColorMatrix type="matrix" values="0 0 0 0 0.99609375  0 0 0 0 0.99609375  0 0 0 0 0.99609375  0 0 0 1 0"></feColorMatrix></filter></defs><mask v-gra="im" id="5e9745ca-0427-469c-8206-4fad5ca09605"><g class="iconsvg-imagesvg" filter="url(#af41ce6e-935e-4e9b-9432-036c97ca0c6c)"><g><rect fill="#2ebef3" fill-opacity="0" stroke-width="2" x="0" y="0" width="80.4" height="100.4924630652701" class="image-rect"></rect> <svg x="0" y="0" width="80.4" height="100.4924630652701" filtersec="colorsb2697402406" class="image-svg-svg primary" style="overflow: visible;"><svg xmlns="http://www.w3.org/2000/svg" viewBox="-0.005629400257021189 0 80.00563049316406 100"><g fill-rule="evenodd"><path d="M80 3.77C59.39 19.79 5.22 27 0 46.84v31.38c0 8.5 2.88 15.55 10.74 21.78C.7 68.08 77.26 73.05 80 45.87z" fill="#114fee"></path><path d="M51.69 17.48L51.59 0C29.1 15.36 2 18.09 0 46.84v31.38a27 27 0 0 0 2.39 11.67c-.34-34.1 49.56-20.5 49.4-52.8z" fill="#2ddaff" opacity=".8"></path></g></svg></svg> </g></g></mask></g></svg>