<svg xmlns="http://www.w3.org/2000/svg" xmlns:xlink="http://www.w3.org/1999/xlink" version="1.0" x="0" y="0" width="2400" height="2911.660499240292" viewBox="122.87600677490235 67.8297802734375 94.24762023925781 114.34044708251953" preserveAspectRatio="xMidYMid meet" color-interpolation-filters="sRGB"><g><defs><linearGradient id="92" x1="0%" y1="0%" x2="100%" y2="0%"><stop offset="0%" stop-color="#fa71cd"></stop> <stop offset="100%" stop-color="#9b59b6"></stop></linearGradient><linearGradient id="93" x1="0%" y1="0%" x2="100%" y2="0%"><stop offset="0%" stop-color="#f9d423"></stop> <stop offset="100%" stop-color="#f83600"></stop></linearGradient><linearGradient id="94" x1="0%" y1="0%" x2="100%" y2="0%"><stop offset="0%" stop-color="#0064d2"></stop> <stop offset="100%" stop-color="#1cb0f6"></stop></linearGradient><linearGradient id="95" x1="0%" y1="0%" x2="100%" y2="0%"><stop offset="0%" stop-color="#f00978"></stop> <stop offset="100%" stop-color="#3f51b1"></stop></linearGradient><linearGradient id="96" x1="0%" y1="0%" x2="100%" y2="0%"><stop offset="0%" stop-color="#7873f5"></stop> <stop offset="100%" stop-color="#ec77ab"></stop></linearGradient><linearGradient id="97" x1="0%" y1="0%" x2="100%" y2="0%"><stop offset="0%" stop-color="#f9d423"></stop> <stop offset="100%" stop-color="#e14fad"></stop></linearGradient><linearGradient id="98" x1="0%" y1="0%" x2="100%" y2="0%"><stop offset="0%" stop-color="#009efd"></stop> <stop offset="100%" stop-color="#2af598"></stop></linearGradient><linearGradient id="99" x1="0%" y1="0%" x2="100%" y2="0%"><stop offset="0%" stop-color="#ffcc00"></stop> <stop offset="100%" stop-color="#00b140"></stop></linearGradient><linearGradient id="100" x1="0%" y1="0%" x2="100%" y2="0%"><stop offset="0%" stop-color="#d51007"></stop> <stop offset="100%" stop-color="#ff8177"></stop></linearGradient><linearGradient id="102" x1="0%" y1="0%" x2="100%" y2="0%"><stop offset="0%" stop-color="#a2b6df"></stop> <stop offset="100%" stop-color="#0c3483"></stop></linearGradient><linearGradient id="103" x1="0%" y1="0%" x2="100%" y2="0%"><stop offset="0%" stop-color="#7ac5d8"></stop> <stop offset="100%" stop-color="#eea2a2"></stop></linearGradient><linearGradient id="104" x1="0%" y1="0%" x2="100%" y2="0%"><stop offset="0%" stop-color="#00ecbc"></stop> <stop offset="100%" stop-color="#007adf"></stop></linearGradient><linearGradient id="105" x1="0%" y1="0%" x2="100%" y2="0%"><stop offset="0%" stop-color="#b88746"></stop> <stop offset="100%" stop-color="#fdf5a6"></stop></linearGradient></defs><g class="imagesvg isNoFont" transform="translate(129.79999923706055,74.75376892089844)"><g mask="url(#e63918dc-8113-41c5-af26-bc746a5b4560)"><rect fill="#e16df5" fill-opacity="0" stroke-width="2" x="0" y="0" width="80.4" height="100.4924630652701" class="image-rect"></rect> <svg x="0" y="0" width="80.4" height="100.4924630652701" filtersec="colorsb7731528029" class="image-svg-svg primary" style="overflow: visible;"><svg xmlns="http://www.w3.org/2000/svg" viewBox="-0.005629400257021189 0 80.00563049316406 100"><g fill-rule="evenodd"><path d="M80 3.77C59.39 19.79 5.22 27 0 46.84v31.38c0 8.5 2.88 15.55 10.74 21.78C.7 68.08 77.26 73.05 80 45.87z" fill="#114fee"></path><path d="M51.69 17.48L51.59 0C29.1 15.36 2 18.09 0 46.84v31.38a27 27 0 0 0 2.39 11.67c-.34-34.1 49.56-20.5 49.4-52.8z" fill="#2ddaff" opacity=".8"></path></g></svg><rect v-gra="id" width="92.39962768554688" height="112.49246215820312" transform="translate(-6, -6)" style="pointer-events:none;" fill="url(#kJSzT0ywUlrpoerAk0ATy)"></rect></svg> </g></g><defs v-gra="od"></defs><defs v-gra="id"><filter id="08355eca-1efc-483d-bc79-619005b34303" filterUnits="userSpaceOnUse"><feColorMatrix type="matrix" values="0 0 0 0 0.99609375  0 0 0 0 0.99609375  0 0 0 0 0.99609375  0 0 0 1 0"></feColorMatrix></filter><linearGradient x1="0" y1="1" x2="0" y2="0" id="kJSzT0ywUlrpoerAk0ATy"><stop offset="0%" stop-color="#649bfc"></stop><stop offset="100%" stop-color="#fbc2eb"></stop></linearGradient><filter id="42443b3f1de60f6b6fd3b6a9844b4764" filterUnits="objectBoundingBox"><feColorMatrix type="matrix" values="0 0 0 0 0.99609375  0 0 0 0 0.99609375  0 0 0 0 0.99609375  0 0 0 1 0"></feColorMatrix></filter></defs><mask v-gra="im" id="e63918dc-8113-41c5-af26-bc746a5b4560"><svg x="0" y="0" width="80.4" height="100.4924630652701" filtersec="colorsb7731528029" class="image-svg-svg primary" style="overflow: visible;" filter="url(#08355eca-1efc-483d-bc79-619005b34303)"><svg xmlns="http://www.w3.org/2000/svg" viewBox="-0.005629400257021189 0 80.00563049316406 100"><g fill-rule="evenodd"><path d="M80 3.77C59.39 19.79 5.22 27 0 46.84v31.38c0 8.5 2.88 15.55 10.74 21.78C.7 68.08 77.26 73.05 80 45.87z" fill="#114fee"></path><path d="M51.69 17.48L51.59 0C29.1 15.36 2 18.09 0 46.84v31.38a27 27 0 0 0 2.39 11.67c-.34-34.1 49.56-20.5 49.4-52.8z" fill="#2ddaff" opacity=".8"></path></g></svg></svg></mask></g></svg>